Coordinates
version=1
nRows=26
nColumns=22
inDegrees=yes

Units are S.I. units (second, meters, Newtons, ...)
If the header above contains a line with 'inDegrees', this indicates whether rotational values are in degrees (yes) or radians (no).

endheader
time	pelvis_tilt	pelvis_list	pelvis_rotation	pelvis_tx	pelvis_ty	pelvis_tz	hip_flexion_r	hip_adduction_r	hip_rotation_r	knee_angle_r	ankle_angle_r	subtalar_angle_r	hip_flexion_l	hip_adduction_l	hip_rotation_l	knee_angle_l	ankle_angle_l	subtalar_angle_l	lumbar_extension	lumbar_bending	lumbar_rotation
      1.27000000	     -3.33563571	     -5.57088091	      3.85413602	      0.86172977	      0.89775465	      0.04059779	     26.84522036	      3.72986306	    -17.69466620	    -22.88739928	      1.01499330	     -4.70573880	     -1.26814477	     -7.49719820	      0.23641107	    -44.08979852	      9.18639727	      6.83482860	     -5.05959194	      7.44679234	    -16.14840793
      1.28000000	     -3.29904344	     -5.59047168	      4.33995220	      0.85483559	      0.89698137	      0.03852380	     27.06454471	      3.46155977	    -18.05811902	    -22.52119967	      0.46418579	     -4.74880538	     -1.46866646	     -7.32000958	      0.68170623	    -42.77327358	      9.65993948	      6.53613536	     -5.07360406	      7.44438493	    -16.42750512
      1.29000000	     -3.24295878	     -5.60115295	      4.80797301	      0.84767134	      0.89621793	      0.03647622	     27.24313446	      3.20552520	    -18.37312346	    -22.08655172	     -0.12397547	     -4.82468934	     -1.64458882	     -7.13612332	      1.15281586	    -41.53462489	     10.31443857	      6.01527763	     -5.13980845	      7.41363477	    -16.67805021
      1.30000000	     -3.18345057	     -5.59212033	      5.27351367	      0.84022918	      0.89542814	      0.03443566	     27.41322577	      2.93218932	    -18.68767509	    -21.61998693	     -0.72025077	     -4.92828331	     -1.76578507	     -6.92842691	      1.68349311	    -40.42607236	     11.12917209	      5.43492945	     -5.24155301	      7.33746191	    -16.90171397
      1.31000000	     -3.10972495	     -5.56296797	      5.71439827	      0.83252138	      0.89463402	      0.03244842	     27.57093393	      2.65651732	    -18.94812632	    -21.13373392	     -1.30448967	     -5.06496380	     -1.84728360	     -6.70116713	      2.23434154	    -39.47485318	     12.10755891	      4.71604510	     -5.39552240	      7.21244285	    -17.08089730
      1.32000000	     -3.02607205	     -5.50163733	      6.15019436	      0.82454959	      0.89383172	      0.03047930	     27.72510475	      2.34919656	    -19.20441777	    -20.64743269	     -1.83190218	     -5.21775566	     -1.86450320	     -6.44081767	      2.80640248	    -38.71335313	     13.21279898	      3.99117975	     -5.60040340	      7.02590425	    -17.23122011
      1.33000000	     -2.93048472	     -5.39525783	      6.55448884	      0.81634231	      0.89303697	      0.02858989	     27.88344524	      2.01301448	    -19.38822789	    -20.18334084	     -2.27450282	     -5.38996626	     -1.83274062	     -6.13911393	      3.33094297	    -38.11522902	     14.41798556	      3.19702527	     -5.86113231	      6.75847785	    -17.37486865
      1.34000000	     -2.82956437	     -5.24089707	      6.92468004	      0.80793647	      0.89226149	      0.02678062	     28.05297696	      1.64018357	    -19.53081787	    -19.75063506	     -2.58670795	     -5.55421450	     -1.75166577	     -5.78550959	      3.79898671	    -37.64914497	     15.66480108	      2.40694707	     -6.17014298	      6.40594429	    -17.48597486
      1.35000000	     -2.71498266	     -5.03507980	      7.28241604	      0.79935583	      0.89154685	      0.02500109	     28.21503790	      1.21625703	    -19.65346019	    -19.34286117	     -2.69948935	     -5.67781369	     -1.63154957	     -5.37117649	      4.22837660	    -37.28503562	     16.89595416	      1.65341399	     -6.53444221	      5.97383614	    -17.59760075
      1.36000000	     -2.58635725	     -4.78337747	      7.58430096	      0.79061162	      0.89091499	      0.02336630	     28.37593930	      0.77398470	    -19.70655150	    -18.96150349	     -2.64459075	     -5.75787225	     -1.48690123	     -4.90977950	      4.54522467	    -36.99261016	     18.10567184	      0.85019443	     -6.96495851	      5.45653214	    -17.63823532
      1.37000000	     -2.42196178	     -4.46889024	      7.86022202	      0.78175422	      0.89043745	      0.02181384	     28.50200277	      0.27994764	    -19.74504384	    -18.61266958	     -2.30457437	     -5.74568304	     -1.35480011	     -4.38942387	      4.76701302	    -36.73308556	     19.21011508	      0.19813526	     -7.48116879	      4.84756217	    -17.67648271
      1.38000000	     -2.26928816	     -4.14257809	      8.06398512	      0.77287798	      0.89011422	      0.02045291	     28.59006461	     -0.16654364	    -19.68192069	    -18.16511028	     -1.87255423	     -5.67508889	     -1.21782518	     -3.86208817	      4.85205070	    -36.44915154	     20.26874462	     -0.74081168	     -8.00655859	      4.19306682	    -17.65910899
      1.39000000	     -2.08048625	     -3.76801668	      8.22113791	      0.76400038	      0.89001715	      0.01922445	     28.60941595	     -0.62837592	    -19.60568522	    -17.69097069	     -1.20214773	     -5.48946382	     -1.13291657	     -3.30691934	      4.80252310	    -36.12897542	     21.18054681	     -1.53194261	     -8.60229566	      3.46523238	    -17.62056009
      1.40000000	     -1.86940731	     -3.38398304	      8.32282305	      0.75514237	      0.89013695	      0.01815250	     28.55796893	     -1.05519959	    -19.51506507	    -17.14348320	     -0.39857946	     -5.18723819	     -1.08075463	     -2.76532460	      4.62253218	    -35.77969135	     21.98873199	     -2.34207713	     -9.24424258	      2.70895370	    -17.52318723
      1.41000000	     -1.64397629	     -2.99240084	      8.36886011	      0.74639428	      0.89046937	      0.01722576	     28.42960199	     -1.44862529	    -19.43908301	    -16.50843706	      0.51218674	     -4.75235671	     -1.07763475	     -2.24625134	      4.30471356	    -35.36260057	     22.68005309	     -3.13413256	     -9.90243537	      1.92974997	    -17.39729033
      1.42000000	     -1.40806341	     -2.59629181	      8.36977869	      0.73775621	      0.89100007	      0.01641913	     28.22317609	     -1.81033314	    -19.37539459	    -15.78042461	      1.47941098	     -4.18659699	     -1.11562745	     -1.74348738	      3.90347026	    -34.88628233	     23.24552043	     -3.85046179	    -10.56848054	      1.13615217	    -17.24123377
      1.43000000	     -1.16936549	     -2.19288393	      8.33902768	      0.72923754	      0.89168774	      0.01569915	     27.95859884	     -2.15964068	    -19.34645257	    -14.99688229	      2.44669930	     -3.50962394	     -1.17751847	     -1.25287504	      3.43477283	    -34.36776932	     23.69346458	     -4.44184223	    -11.22866410	      0.33285104	    -17.07927525
      1.44000000	     -0.94898886	     -1.80788913	      8.28671026	      0.72089507	      0.89247123	      0.01503965	     27.67262157	     -2.48981768	    -19.40223339	    -14.20509172	      3.36476261	     -2.70327786	     -1.24258205	     -0.79101942	      2.94402531	    -33.80719605	     24.08441720	     -4.93822655	    -11.83890764	     -0.44813965	    -16.91478156
      1.45000000	     -0.77159575	     -1.43287925	      8.22409746	      0.71272613	      0.89328196	      0.01438574	     27.42985353	     -2.83847369	    -19.57197514	    -13.50866231	      4.19894247	     -1.90547467	     -1.27617325	     -0.33761340	      2.45713056	    -33.21906349	     24.40185248	     -5.25941837	    -12.36841468	     -1.20818219	    -16.73031198
      1.46000000	     -0.62697137	     -1.12031670	      8.19024451	      0.70463846	      0.89410542	      0.01370863	     27.21584564	     -3.16229923	    -19.81011375	    -12.91212799	      4.80922744	     -0.90567675	     -1.21896851	      0.05808277	      2.03967056	    -32.71423700	     24.74604049	     -5.60628044	    -12.83741880	     -1.87475886	    -16.58376430
      1.47000000	     -0.54995826	     -0.80831037	      8.15885874	      0.69669295	      0.89489712	      0.01298704	     27.13389031	     -3.54683435	    -20.10195030	    -12.59299526	      5.30036890	     -0.20968056	     -1.07952152	      0.47759779	      1.68386822	    -32.22967336	     24.96123326	     -5.78404888	    -13.20340449	     -2.51993927	    -16.43885083
      1.48000000	     -0.52799831	     -0.56606605	      8.15553571	      0.68880315	      0.89565319	      0.01217779	     27.18632120	     -3.94262884	    -20.44438450	    -12.59371867	      5.50794863	      0.51558163	     -0.80267179	      0.84701298	      1.39671782	    -31.87094815	     25.18059134	     -6.02840550	    -13.48819660	     -3.05055496	    -16.26650601
      1.49000000	     -0.54848627	     -0.36914415	      8.16296972	      0.68108061	      0.89641812	      0.01130153	     27.35405441	     -4.36279805	    -20.76851862	    -12.94299431	      5.65092836	      0.88033013	     -0.45523734	      1.20328333	      1.22486315	    -31.56071954	     25.36193457	     -6.17952276	    -13.69450861	     -3.49848492	    -16.06075613
      1.50000000	     -0.63039544	     -0.22164400	      8.17511139	      0.67346441	      0.89716691	      0.01035317	     27.67336767	     -4.80850511	    -21.00542982	    -13.67060056	      5.62090916	      1.17423968	      0.01649660	      1.53951441	      1.10927694	    -31.35621821	     25.45568507	     -6.40551669	    -13.81170531	     -3.85536462	    -15.82727461
      1.51000000	     -0.74158534	     -0.13333504	      8.17997020	      0.66601146	      0.89794481	      0.00937038	     28.09257980	     -5.24672726	    -21.10321314	    -14.74510511	      5.53649943	      1.34251642	      0.56618506	      1.83502789	      1.03334733	    -31.24254059	     25.49196005	     -6.68650423	    -13.87016349	     -4.11278470	    -15.54294221
      1.52000000	     -0.84318707	     -0.07874524	      8.16066376	      0.65879216	      0.89883752	      0.00837102	     28.55275007	     -5.67615394	    -21.01985334	    -16.13223988	      5.48517834	      1.41201231	      1.09959577	      2.11649194	      1.01509993	    -31.13998583	     25.46222911	     -6.95640933	    -13.91334870	     -4.29818538	    -15.21079901
